<?xml version="1.0" encoding="utf-8"?>
<!-- Generator: Adobe Illustrator 19.0.0, SVG Export Plug-In . SVG Version: 6.00 Build 0)  -->
<svg version="1.1" id="Layer_1" xmlns="http://www.w3.org/2000/svg" xmlns:xlink="http://www.w3.org/1999/xlink" x="0px" y="0px"
	 viewBox="0 0 730 198" style="enable-background:new 0 0 730 198;" xml:space="preserve">
<style type="text/css">
	.st0{fill:url(#XMLID_28_);}
	.st1{fill:url(#XMLID_29_);}
	.st2{fill:#231F20;}
</style>
<g id="XMLID_114_">
	<linearGradient id="XMLID_28_" gradientUnits="userSpaceOnUse" x1="17.3961" y1="253.8944" x2="744.3961" y2="59.8944">
		<stop  offset="0" style="stop-color:#414042"/>
		<stop  offset="1" style="stop-color:#58595B"/>
	</linearGradient>
	<path id="XMLID_131_" class="st0" d="M618.6,80c-2.1-1.7-5-2.5-8.7-2.5c-3.7,0-6.6,0.8-8.7,2.4c-2.1,1.6-3.2,3.9-3.2,7v17.7
		c0,3,1.1,5.3,3.2,7c2.1,1.6,5,2.4,8.7,2.4c3.7,0,6.6-0.8,8.7-2.5c2.1-1.7,3.2-4,3.2-7V87.1C621.8,84,620.8,81.7,618.6,80z"/>
	<linearGradient id="XMLID_29_" gradientUnits="userSpaceOnUse" x1="1.9173" y1="195.8886" x2="728.9173" y2="1.8886">
		<stop  offset="0" style="stop-color:#414042"/>
		<stop  offset="1" style="stop-color:#58595B"/>
	</linearGradient>
	<path id="XMLID_115_" class="st1" d="M0,0v198h730V0H0z M166.4,133.5c0,0.9-0.3,1.6-0.9,2.2c-0.6,0.6-1.4,0.9-2.2,0.9h-21.2
		c-0.9,0-1.6-0.3-2.2-0.9c-0.6-0.6-0.9-1.4-0.9-2.2V97.3l-8.5,16.8c-0.5,0.9-1.2,1.7-2.1,2.2c-0.9,0.5-1.9,0.8-2.8,0.8h-7.9
		c-1.3,0-2.4-0.4-3.3-1.1c-0.9-0.7-1.4-1.3-1.6-1.9l-8.5-16.8v36.2c0,0.9-0.3,1.6-0.9,2.2c-0.6,0.6-1.4,0.9-2.2,0.9H79.8
		c-0.9,0-1.6-0.3-2.2-0.9c-0.6-0.6-0.9-1.4-0.9-2.2V58c0-0.9,0.3-1.6,0.9-2.2c0.6-0.6,1.4-0.9,2.2-0.9h21.4c2.2,0,3.9,1.1,5,3.2
		l15.3,28.1L136.8,58c1.2-2.1,2.8-3.2,5-3.2h21.4c0.9,0,1.6,0.3,2.2,0.9c0.6,0.6,0.9,1.4,0.9,2.2V133.5z M291.5,102.1
		c0,11.9-3.8,20.7-11.5,26.3c-7.7,5.6-18.1,8.4-31.1,8.4c-13.1,0-23.5-2.8-31.1-8.4c-7.7-5.6-11.5-14.4-11.5-26.3V58
		c0-0.8,0.3-1.6,0.9-2.2c0.6-0.6,1.4-0.9,2.2-0.9h24.4c0.9,0,1.6,0.3,2.2,0.9c0.6,0.6,0.9,1.3,0.9,2.2v45.7c0,3.1,1.1,5.5,3.2,7.2
		c2.1,1.7,5,2.5,8.7,2.5c3.7,0,6.6-0.8,8.7-2.5c2.1-1.7,3.2-4.1,3.2-7.2V58c0-0.8,0.3-1.6,0.9-2.2c0.6-0.6,1.4-0.9,2.2-0.9h24.4
		c0.9,0,1.6,0.3,2.2,0.9c0.6,0.6,0.9,1.3,0.9,2.2V102.1z M399.3,129.6c-7.9,4.8-18.3,7.2-31.3,7.2c-13,0-23.1-2.4-30.3-7.1
		c-7.2-4.7-10.8-10.6-10.8-17.5c0-1.7,0.9-2.5,2.7-2.5h24c1.6,0,3,0.5,4,1.4c2.2,2,6,3,11.3,3c7.4,0,11.1-1.1,11.1-3.3
		c0-1.4-1.2-2.4-3.5-3.2c-2.3-0.8-7-1.6-13.9-2.3c-22.1-2.6-33.1-10.7-33.1-24.5c0-7.8,3.5-14,10.6-18.8c7.1-4.8,16.6-7.2,28.5-7.2
		c11.9,0,21.5,2.6,28.8,7.7c7.3,5.1,11,10.6,11,16.3c0,0.8-0.3,1.4-0.8,1.9c-0.5,0.5-1.2,0.7-2,0.7h-25.1c-1.4,0-2.6-0.4-3.6-1.3
		c-1.9-1.6-4.7-2.4-8.4-2.4c-5.2,0-7.8,1.1-7.8,3.2c0,1.1,1,2,3,2.7c2,0.6,6.1,1.3,12.2,2c12.8,1.4,21.9,4.1,27.3,8
		c5.4,3.9,8.1,9.7,8.1,17.4C411.1,118.5,407.2,124.8,399.3,129.6z M529.9,75.7c0,0.9-0.3,1.6-0.9,2.2c-0.6,0.6-1.4,0.9-2.2,0.9
		h-21.2v33.9h21.2c0.9,0,1.6,0.3,2.2,0.9c0.6,0.6,0.9,1.4,0.9,2.2v17.6c0,0.9-0.3,1.6-0.9,2.2c-0.6,0.6-1.4,0.9-2.2,0.9h-74.1
		c-0.9,0-1.6-0.3-2.2-0.9c-0.6-0.6-0.9-1.4-0.9-2.2v-17.6c0-0.9,0.3-1.6,0.9-2.2c0.6-0.6,1.4-0.9,2.2-0.9H474V78.8h-21.4
		c-0.9,0-1.6-0.3-2.2-0.9c-0.6-0.6-0.9-1.4-0.9-2.2V58c0-0.9,0.3-1.6,0.9-2.2c0.6-0.6,1.4-0.9,2.2-0.9h74.1c0.9,0,1.6,0.3,2.2,0.9
		c0.6,0.6,0.9,1.4,0.9,2.2V75.7z M653.4,102.6c0,11.1-3.8,19.6-11.3,25.3l8.6,11.7c0.5,1.1,0.5,2-0.1,2.6c-0.6,0.7-1.2,1-1.9,1
		h-22.3c-2.5,0-4.4-1-5.7-2.9l-3-3.9c-2.5,0.2-5.1,0.4-7.7,0.4c-8.6,0-16-1.1-22.3-3.3c-6.3-2.2-11.4-5.9-15.3-11.2
		c-3.9-5.2-5.8-11.9-5.8-19.8V89.1c0-8,1.9-14.6,5.8-19.8c3.9-5.2,9-9,15.3-11.2c6.3-2.2,13.8-3.3,22.3-3.3c8.6,0,16,1.1,22.3,3.3
		c6.3,2.2,11.4,5.9,15.3,11.1c3.9,5.2,5.8,11.7,5.8,19.5V102.6z"/>
</g>
<g id="XMLID_372_">
	<path id="XMLID_380_" class="st2" d="M618.6,80c-2.1-1.7-5-2.5-8.7-2.5c-3.7,0-6.6,0.8-8.7,2.4c-2.1,1.6-3.2,3.9-3.2,7v17.7
		c0,3,1.1,5.3,3.2,7c2.1,1.6,5,2.4,8.7,2.4c3.7,0,6.6-0.8,8.7-2.5c2.1-1.7,3.2-4,3.2-7V87.1C621.8,84,620.8,81.7,618.6,80z"/>
	<path id="XMLID_373_" class="st2" d="M0,0v198h730V0H0z M166.4,133.5c0,0.9-0.3,1.6-0.9,2.2c-0.6,0.6-1.4,0.9-2.2,0.9h-21.2
		c-0.9,0-1.6-0.3-2.2-0.9c-0.6-0.6-0.9-1.4-0.9-2.2V97.3l-8.5,16.8c-0.5,0.9-1.2,1.7-2.1,2.2c-0.9,0.5-1.9,0.8-2.8,0.8h-7.9
		c-1.3,0-2.4-0.4-3.3-1.1c-0.9-0.7-1.4-1.3-1.6-1.9l-8.5-16.8v36.2c0,0.9-0.3,1.6-0.9,2.2c-0.6,0.6-1.4,0.9-2.2,0.9H79.8
		c-0.9,0-1.6-0.3-2.2-0.9c-0.6-0.6-0.9-1.4-0.9-2.2V58c0-0.9,0.3-1.6,0.9-2.2c0.6-0.6,1.4-0.9,2.2-0.9h21.4c2.2,0,3.9,1.1,5,3.2
		l15.3,28.1L136.8,58c1.2-2.1,2.8-3.2,5-3.2h21.4c0.9,0,1.6,0.3,2.2,0.9c0.6,0.6,0.9,1.4,0.9,2.2V133.5z M291.5,102.1
		c0,11.9-3.8,20.7-11.5,26.3c-7.7,5.6-18.1,8.4-31.1,8.4c-13.1,0-23.5-2.8-31.1-8.4c-7.7-5.6-11.5-14.4-11.5-26.3V58
		c0-0.8,0.3-1.6,0.9-2.2c0.6-0.6,1.4-0.9,2.2-0.9h24.4c0.9,0,1.6,0.3,2.2,0.9c0.6,0.6,0.9,1.3,0.9,2.2v45.7c0,3.1,1.1,5.5,3.2,7.2
		c2.1,1.7,5,2.5,8.7,2.5c3.7,0,6.6-0.8,8.7-2.5c2.1-1.7,3.2-4.1,3.2-7.2V58c0-0.8,0.3-1.6,0.9-2.2c0.6-0.6,1.4-0.9,2.2-0.9h24.4
		c0.9,0,1.6,0.3,2.2,0.9c0.6,0.6,0.9,1.3,0.9,2.2V102.1z M399.3,129.6c-7.9,4.8-18.3,7.2-31.3,7.2c-13,0-23.1-2.4-30.3-7.1
		c-7.2-4.7-10.8-10.6-10.8-17.5c0-1.7,0.9-2.5,2.7-2.5h24c1.6,0,3,0.5,4,1.4c2.2,2,6,3,11.3,3c7.4,0,11.1-1.1,11.1-3.3
		c0-1.4-1.2-2.4-3.5-3.2c-2.3-0.8-7-1.6-13.9-2.3c-22.1-2.6-33.1-10.7-33.1-24.5c0-7.8,3.5-14,10.6-18.8c7.1-4.8,16.6-7.2,28.5-7.2
		c11.9,0,21.5,2.6,28.8,7.7c7.3,5.1,11,10.6,11,16.3c0,0.8-0.3,1.4-0.8,1.9c-0.5,0.5-1.2,0.7-2,0.7h-25.1c-1.4,0-2.6-0.4-3.6-1.3
		c-1.9-1.6-4.7-2.4-8.4-2.4c-5.2,0-7.8,1.1-7.8,3.2c0,1.1,1,2,3,2.7c2,0.6,6.1,1.3,12.2,2c12.8,1.4,21.9,4.1,27.3,8
		c5.4,3.9,8.1,9.7,8.1,17.4C411.1,118.5,407.2,124.8,399.3,129.6z M529.9,75.7c0,0.9-0.3,1.6-0.9,2.2c-0.6,0.6-1.4,0.9-2.2,0.9
		h-21.2v33.9h21.2c0.9,0,1.6,0.3,2.2,0.9c0.6,0.6,0.9,1.4,0.9,2.2v17.6c0,0.9-0.3,1.6-0.9,2.2c-0.6,0.6-1.4,0.9-2.2,0.9h-74.1
		c-0.9,0-1.6-0.3-2.2-0.9c-0.6-0.6-0.9-1.4-0.9-2.2v-17.6c0-0.9,0.3-1.6,0.9-2.2c0.6-0.6,1.4-0.9,2.2-0.9H474V78.8h-21.4
		c-0.9,0-1.6-0.3-2.2-0.9c-0.6-0.6-0.9-1.4-0.9-2.2V58c0-0.9,0.3-1.6,0.9-2.2c0.6-0.6,1.4-0.9,2.2-0.9h74.1c0.9,0,1.6,0.3,2.2,0.9
		c0.6,0.6,0.9,1.4,0.9,2.2V75.7z M653.4,102.6c0,11.1-3.8,19.6-11.3,25.3l8.6,11.7c0.5,1.1,0.5,2-0.1,2.6c-0.6,0.7-1.2,1-1.9,1
		h-22.3c-2.5,0-4.4-1-5.7-2.9l-3-3.9c-2.5,0.2-5.1,0.4-7.7,0.4c-8.6,0-16-1.1-22.3-3.3c-6.3-2.2-11.4-5.9-15.3-11.2
		c-3.9-5.2-5.8-11.9-5.8-19.8V89.1c0-8,1.9-14.6,5.8-19.8c3.9-5.2,9-9,15.3-11.2c6.3-2.2,13.8-3.3,22.3-3.3c8.6,0,16,1.1,22.3,3.3
		c6.3,2.2,11.4,5.9,15.3,11.1c3.9,5.2,5.8,11.7,5.8,19.5V102.6z"/>
</g>
</svg>
