<?xml version="1.0" encoding="utf-8"?>
<!-- Generator: Adobe Illustrator 19.0.0, SVG Export Plug-In . SVG Version: 6.00 Build 0)  -->
<svg version="1.1" id="Layer_1" xmlns="http://www.w3.org/2000/svg" xmlns:xlink="http://www.w3.org/1999/xlink" x="0px" y="0px"
	 viewBox="0 0 433 297.6" style="enable-background:new 0 0 433 297.6;" xml:space="preserve">
<style type="text/css">
	.st0{fill:none;stroke:#F1F2F2;stroke-width:4;stroke-linecap:round;stroke-linejoin:round;stroke-miterlimit:10;}
	.st1{fill:#231F20;}
	.st2{fill:#E6E7E8;}
</style>
<g id="XMLID_269_">
	<polygon id="XMLID_272_" class="st0" points="50.9,294.1 218.7,3.5 386.5,294.1 	"/>
	<polygon id="XMLID_271_" class="st0" points="3.5,294.1 126.7,80.8 249.8,294.1 	"/>
	<polygon id="XMLID_270_" class="st0" points="144.6,294.1 287.1,47.4 429.5,294.1 	"/>
</g>
<g id="XMLID_372_">
	<path id="XMLID_380_" class="st1" d="M458.9-191.3c-2.1-1.7-5-2.5-8.7-2.5c-3.7,0-6.6,0.8-8.7,2.4c-2.1,1.6-3.2,3.9-3.2,7v17.7
		c0,3,1.1,5.3,3.2,7c2.1,1.6,5,2.4,8.7,2.4c3.7,0,6.6-0.8,8.7-2.5c2.1-1.7,3.2-4,3.2-7v-17.5C462.1-187.3,461-189.6,458.9-191.3z"/>
	<path id="XMLID_373_" class="st1" d="M-159.8-271.3v198h730v-198H-159.8z M6.6-137.8c0,0.9-0.3,1.6-0.9,2.2
		c-0.6,0.6-1.4,0.9-2.2,0.9h-21.2c-0.9,0-1.6-0.3-2.2-0.9c-0.6-0.6-0.9-1.4-0.9-2.2V-174l-8.5,16.8c-0.5,0.9-1.2,1.7-2.1,2.2
		c-0.9,0.5-1.9,0.8-2.8,0.8h-7.9c-1.3,0-2.4-0.4-3.3-1.1c-0.9-0.7-1.4-1.3-1.6-1.9l-8.5-16.8v36.2c0,0.9-0.3,1.6-0.9,2.2
		c-0.6,0.6-1.4,0.9-2.2,0.9H-80c-0.9,0-1.6-0.3-2.2-0.9c-0.6-0.6-0.9-1.4-0.9-2.2v-75.5c0-0.9,0.3-1.6,0.9-2.2
		c0.6-0.6,1.4-0.9,2.2-0.9h21.4c2.2,0,3.9,1.1,5,3.2l15.3,28.1l15.3-28.1c1.2-2.1,2.8-3.2,5-3.2H3.4c0.9,0,1.6,0.3,2.2,0.9
		c0.6,0.6,0.9,1.4,0.9,2.2V-137.8z M131.8-169.3c0,11.9-3.8,20.7-11.5,26.3c-7.7,5.6-18.1,8.4-31.1,8.4c-13.1,0-23.5-2.8-31.1-8.4
		c-7.7-5.6-11.5-14.4-11.5-26.3v-44.1c0-0.8,0.3-1.6,0.9-2.2c0.6-0.6,1.4-0.9,2.2-0.9H74c0.9,0,1.6,0.3,2.2,0.9
		c0.6,0.6,0.9,1.3,0.9,2.2v45.7c0,3.1,1.1,5.5,3.2,7.2c2.1,1.7,5,2.5,8.7,2.5c3.7,0,6.6-0.8,8.7-2.5c2.1-1.7,3.2-4.1,3.2-7.2v-45.7
		c0-0.8,0.3-1.6,0.9-2.2c0.6-0.6,1.4-0.9,2.2-0.9h24.4c0.9,0,1.6,0.3,2.2,0.9c0.6,0.6,0.9,1.3,0.9,2.2V-169.3z M239.5-141.7
		c-7.9,4.8-18.3,7.2-31.3,7.2c-13,0-23.1-2.4-30.3-7.1c-7.2-4.7-10.8-10.6-10.8-17.5c0-1.7,0.9-2.5,2.7-2.5h24c1.6,0,3,0.5,4,1.4
		c2.2,2,6,3,11.3,3c7.4,0,11.1-1.1,11.1-3.3c0-1.4-1.2-2.4-3.5-3.2c-2.3-0.8-7-1.6-13.9-2.3c-22.1-2.6-33.1-10.7-33.1-24.5
		c0-7.8,3.5-14,10.6-18.8c7.1-4.8,16.6-7.2,28.5-7.2c11.9,0,21.5,2.6,28.8,7.7c7.3,5.1,11,10.6,11,16.3c0,0.8-0.3,1.4-0.8,1.9
		c-0.5,0.5-1.2,0.7-2,0.7h-25.1c-1.4,0-2.6-0.4-3.6-1.3c-1.9-1.6-4.7-2.4-8.4-2.4c-5.2,0-7.8,1.1-7.8,3.2c0,1.1,1,2,3,2.7
		c2,0.6,6.1,1.3,12.2,2c12.8,1.4,21.9,4.1,27.3,8c5.4,3.9,8.1,9.7,8.1,17.4C251.3-152.8,247.4-146.6,239.5-141.7z M370.1-195.7
		c0,0.9-0.3,1.6-0.9,2.2c-0.6,0.6-1.4,0.9-2.2,0.9h-21.2v33.9h21.2c0.9,0,1.6,0.3,2.2,0.9c0.6,0.6,0.9,1.4,0.9,2.2v17.6
		c0,0.9-0.3,1.6-0.9,2.2c-0.6,0.6-1.4,0.9-2.2,0.9h-74.1c-0.9,0-1.6-0.3-2.2-0.9c-0.6-0.6-0.9-1.4-0.9-2.2v-17.6
		c0-0.9,0.3-1.6,0.9-2.2c0.6-0.6,1.4-0.9,2.2-0.9h21.4v-33.9h-21.4c-0.9,0-1.6-0.3-2.2-0.9c-0.6-0.6-0.9-1.4-0.9-2.2v-17.6
		c0-0.9,0.3-1.6,0.9-2.2c0.6-0.6,1.4-0.9,2.2-0.9h74.1c0.9,0,1.6,0.3,2.2,0.9c0.6,0.6,0.9,1.4,0.9,2.2V-195.7z M493.6-168.7
		c0,11.1-3.8,19.6-11.3,25.3l8.6,11.7c0.5,1.1,0.5,2-0.1,2.6c-0.6,0.7-1.2,1-1.9,1h-22.3c-2.5,0-4.4-1-5.7-2.9l-3-3.9
		c-2.5,0.2-5.1,0.4-7.7,0.4c-8.6,0-16-1.1-22.3-3.3c-6.3-2.2-11.4-5.9-15.3-11.2c-3.9-5.2-5.8-11.9-5.8-19.8v-13.4
		c0-8,1.9-14.6,5.8-19.8c3.9-5.2,9-9,15.3-11.2c6.3-2.2,13.8-3.3,22.3-3.3c8.6,0,16,1.1,22.3,3.3c6.3,2.2,11.4,5.9,15.3,11.1
		c3.9,5.2,5.8,11.7,5.8,19.5V-168.7z"/>
</g>
<rect id="XMLID_27_" x="-746" y="-325.4" style="fill:none;" width="782.6" height="181.7"/>
<text id="XMLID_28_" transform="matrix(1 0 0 1 -474.1882 -274.9658)"><tspan x="0" y="0" style="font-family:'RubikMonoOne-Regular'; font-size:72px;">YAMA</tspan><tspan x="-27.7" y="60.4" style="font-family:'RubikMonoOne-Regular'; font-size:72px;">MUSIC</tspan></text>
<g id="XMLID_29_">
	<path id="XMLID_452_" class="st2" d="M-324.8,117.3h20.5c0.6,0,1.1,0.2,1.5,0.6c0.4,0.4,0.6,0.9,0.6,1.3c0,0.5-0.1,0.9-0.3,1.3
		l-24.7,40.9v21.9c0,0.7-0.3,1.3-0.8,1.9c-0.5,0.5-1.1,0.8-1.9,0.8h-20.9c-0.7,0-1.3-0.3-1.9-0.8c-0.5-0.5-0.8-1.1-0.8-1.9v-21.9
		l-24.6-40.9c-0.2-0.4-0.3-0.8-0.3-1.3c0-0.5,0.2-0.9,0.6-1.3c0.4-0.4,0.9-0.6,1.5-0.6h20.7c1.8,0,3.2,0.8,4,2.3l11.1,19.4
		l11.4-19.2C-327.9,118.1-326.5,117.3-324.8,117.3z"/>
	<path id="XMLID_449_" class="st2" d="M-287.1,186h-18.6c-0.6,0-1.1-0.2-1.5-0.6c-0.4-0.4-0.6-0.8-0.6-1.2c0-0.4,0-0.7,0.1-0.9
		l21.4-62.7c0.6-2.2,2.1-3.2,4.4-3.2h27.3c2.4,0,3.8,1.1,4.4,3.2l21.4,62.7c0.1,0.2,0.1,0.5,0.1,0.9c0,0.4-0.2,0.8-0.6,1.2
		c-0.4,0.4-0.9,0.6-1.5,0.6h-18.6c-2.1,0-3.6-1.1-4.4-3.3l-2.5-6.9h-24l-2.5,6.9C-283.5,184.9-285,186-287.1,186z M-261.3,156.6
		l-7-20.4l-7,20.4H-261.3z"/>
	<path id="XMLID_447_" class="st2" d="M-166,117.3h18c0.7,0,1.3,0.3,1.9,0.8c0.5,0.5,0.8,1.1,0.8,1.9v63.4c0,0.7-0.3,1.3-0.8,1.9
		c-0.5,0.5-1.1,0.8-1.9,0.8h-17.8c-0.7,0-1.3-0.3-1.9-0.8c-0.5-0.5-0.8-1.1-0.8-1.9v-30.4l-7.2,14.1c-0.4,0.8-1,1.4-1.8,1.8
		c-0.8,0.4-1.6,0.6-2.4,0.6h-6.7c-1.1,0-2-0.3-2.7-0.9c-0.7-0.6-1.2-1.1-1.4-1.6l-7.2-14.1v30.4c0,0.7-0.3,1.3-0.8,1.9
		c-0.5,0.5-1.1,0.8-1.9,0.8h-17.8c-0.7,0-1.3-0.3-1.9-0.8c-0.5-0.5-0.8-1.1-0.8-1.9v-63.4c0-0.7,0.3-1.3,0.8-1.9
		c0.5-0.5,1.1-0.8,1.9-0.8h18c1.8,0,3.2,0.9,4.2,2.7l12.9,23.6l12.9-23.6C-169.3,118.2-167.9,117.3-166,117.3z"/>
	<path id="XMLID_444_" class="st2" d="M-116.3,186h-18.6c-0.6,0-1.1-0.2-1.5-0.6c-0.4-0.4-0.6-0.8-0.6-1.2c0-0.4,0-0.7,0.1-0.9
		l21.4-62.7c0.6-2.2,2.1-3.2,4.4-3.2h27.3c2.4,0,3.8,1.1,4.4,3.2l21.4,62.7c0.1,0.2,0.1,0.5,0.1,0.9c0,0.4-0.2,0.8-0.6,1.2
		c-0.4,0.4-0.9,0.6-1.5,0.6h-18.6c-2.1,0-3.6-1.1-4.4-3.3l-2.5-6.9h-24l-2.5,6.9C-112.7,184.9-114.2,186-116.3,186z M-90.5,156.6
		l-7-20.4l-7,20.4H-90.5z"/>
	<path id="XMLID_421_" class="st2" d="M-360.9,199.6h18c0.7,0,1.3,0.3,1.9,0.8c0.5,0.5,0.8,1.1,0.8,1.9v63.4c0,0.7-0.3,1.3-0.8,1.9
		c-0.5,0.5-1.1,0.8-1.9,0.8h-17.8c-0.7,0-1.3-0.3-1.9-0.8c-0.5-0.5-0.8-1.1-0.8-1.9v-30.4l-7.2,14.1c-0.4,0.8-1,1.4-1.8,1.8
		c-0.8,0.4-1.6,0.6-2.4,0.6h-6.7c-1.1,0-2-0.3-2.7-0.9c-0.7-0.6-1.2-1.1-1.4-1.6l-7.2-14.1v30.4c0,0.7-0.3,1.3-0.8,1.9
		c-0.5,0.5-1.1,0.8-1.9,0.8H-413c-0.7,0-1.3-0.3-1.9-0.8c-0.5-0.5-0.8-1.1-0.8-1.9v-63.4c0-0.7,0.3-1.3,0.8-1.9
		c0.5-0.5,1.1-0.8,1.9-0.8h18c1.8,0,3.2,0.9,4.2,2.6l12.9,23.6l12.9-23.6C-364.1,200.5-362.7,199.6-360.9,199.6z"/>
	<path id="XMLID_280_" class="st2" d="M-268.4,261.4c-6.4,4.7-15.2,7.1-26.2,7.1c-11,0-19.7-2.4-26.2-7.1
		c-6.4-4.7-9.7-12.1-9.7-22.1v-37c0-0.7,0.3-1.3,0.8-1.8c0.5-0.5,1.1-0.8,1.9-0.8h20.5c0.7,0,1.3,0.3,1.9,0.8
		c0.5,0.5,0.8,1.1,0.8,1.8v38.4c0,2.6,0.9,4.7,2.7,6.1c1.8,1.4,4.2,2.1,7.3,2.1c3.1,0,5.5-0.7,7.3-2.1s2.7-3.4,2.7-6.1v-38.4
		c0-0.7,0.3-1.3,0.8-1.8c0.5-0.5,1.1-0.8,1.9-0.8h20.5c0.7,0,1.3,0.3,1.9,0.8c0.5,0.5,0.8,1.1,0.8,1.8v37
		C-258.7,249.3-261.9,256.6-268.4,261.4z"/>
	<path id="XMLID_278_" class="st2" d="M-186.7,231.9c4.5,3.3,6.8,8.1,6.8,14.6s-3.3,11.8-9.9,15.8c-6.6,4-15.4,6.1-26.3,6.1
		c-10.9,0-19.4-2-25.5-6c-6.1-4-9.1-8.9-9.1-14.7c0-1.4,0.8-2.1,2.3-2.1h20.1c1.4,0,2.5,0.4,3.3,1.2c1.8,1.7,5,2.5,9.5,2.5
		c6.2,0,9.3-0.9,9.3-2.7c0-1.1-1-2-2.9-2.7c-2-0.7-5.9-1.3-11.7-1.9c-18.5-2.1-27.8-9-27.8-20.6c0-6.5,3-11.8,8.9-15.8
		c6-4,13.9-6,23.9-6c10,0,18,2.2,24.2,6.5c6.2,4.3,9.2,8.9,9.2,13.7c0,0.6-0.2,1.2-0.6,1.6c-0.4,0.4-1,0.6-1.7,0.6h-21.1
		c-1.2,0-2.2-0.4-3-1.1c-1.6-1.4-3.9-2-7.1-2c-4.4,0-6.6,0.9-6.6,2.7c0,0.9,0.8,1.7,2.6,2.2c1.7,0.5,5.1,1.1,10.2,1.7
		C-198.9,226.4-191.3,228.6-186.7,231.9z"/>
	<path id="XMLID_276_" class="st2" d="M-106.4,219.7h-17.8v28.5h17.8c0.7,0,1.3,0.3,1.9,0.8c0.5,0.5,0.8,1.1,0.8,1.9v14.8
		c0,0.7-0.3,1.3-0.8,1.9c-0.5,0.5-1.1,0.8-1.9,0.8h-62.2c-0.7,0-1.3-0.3-1.9-0.8c-0.5-0.5-0.8-1.1-0.8-1.9v-14.8
		c0-0.7,0.3-1.3,0.8-1.9c0.5-0.5,1.1-0.8,1.9-0.8h18v-28.5h-18c-0.7,0-1.3-0.3-1.9-0.8c-0.5-0.5-0.8-1.1-0.8-1.9v-14.8
		c0-0.7,0.3-1.3,0.8-1.9c0.5-0.5,1.1-0.8,1.9-0.8h62.2c0.7,0,1.3,0.3,1.9,0.8c0.5,0.5,0.8,1.1,0.8,1.9v14.8c0,0.7-0.3,1.3-0.8,1.9
		C-105,219.5-105.6,219.7-106.4,219.7z"/>
	<path id="XMLID_274_" class="st2" d="M-69,226.6v14.9c0,2.5,0.9,4.5,2.7,5.8c1.8,1.4,4.2,2,7.1,2s5-0.4,6.3-1.3
		c1.3-0.9,2.4-2.1,3.3-3.8c0.9-1.7,2-2.5,3.5-2.5h21.2c0.6,0,1.1,0.2,1.5,0.6c0.4,0.4,0.6,0.9,0.6,1.5c0,6-2.9,11.5-8.6,16.4
		c-2.9,2.4-6.7,4.4-11.5,5.9c-4.8,1.5-10.4,2.3-16.9,2.3s-12.4-1-17.7-2.9c-5.3-1.9-9.7-5.1-13-9.6c-3.3-4.4-5-9.9-5-16.3v-11.3
		c0-6.4,1.7-11.9,5-16.4c6.3-8.3,16.8-12.4,31.5-12.4c6,0,11.3,0.8,16.1,2.3c4.8,1.5,8.6,3.5,11.5,5.9c5.8,5,8.6,10.4,8.6,16.4
		c0,0.6-0.2,1.1-0.6,1.5c-0.4,0.4-0.9,0.6-1.5,0.6h-21.2c-1.4,0-2.6-0.8-3.5-2.5c-0.9-1.7-2-2.9-3.3-3.8c-1.3-0.9-3.4-1.3-6.3-1.3
		s-5.3,0.7-7.1,2C-68.1,222.1-69,224-69,226.6z"/>
</g>
<g id="XMLID_122_">
	<polygon id="XMLID_144_" class="st1" points="299.9,110 295.1,124 304.7,124 	"/>
	<polygon id="XMLID_145_" class="st1" points="178.1,124 187.7,124 182.9,110 	"/>
	<path id="XMLID_148_" class="st1" d="M42.5,61.3v175h348v-175H42.5z M272.9,142.2l14.7-43c0.4-1.5,1.4-2.2,3-2.2h18.7
		c1.6,0,2.6,0.7,3,2.2l14.7,43c0,0.1,0.1,0.3,0.1,0.6s-0.1,0.5-0.4,0.8c-0.3,0.3-0.6,0.4-1,0.4h-12.7c-1.4,0-2.4-0.8-3-2.3l-1.7-4.7
		h-16.4l-1.7,4.7c-0.6,1.5-1.6,2.3-3,2.3h-12.7c-0.4,0-0.8-0.1-1-0.4c-0.3-0.3-0.4-0.6-0.4-0.8S272.8,142.3,272.9,142.2z M108,97.5
		c0.3-0.3,0.6-0.4,1-0.4h14.2c1.3,0,2.2,0.5,2.8,1.5l7.6,13.3l7.8-13.2c0.7-1.1,1.6-1.7,2.8-1.7h14.1c0.4,0,0.8,0.1,1,0.4
		c0.3,0.3,0.4,0.6,0.4,0.9c0,0.3-0.1,0.6-0.2,0.9l-16.9,28v15c0,0.5-0.2,0.9-0.5,1.3c-0.4,0.4-0.8,0.5-1.3,0.5h-14.3
		c-0.5,0-0.9-0.2-1.3-0.5c-0.4-0.4-0.5-0.8-0.5-1.3v-15l-16.9-28c-0.1-0.3-0.2-0.6-0.2-0.9C107.5,98,107.7,97.7,108,97.5z
		 M133.6,198.7c0,0.5-0.2,0.9-0.5,1.3c-0.4,0.4-0.8,0.5-1.3,0.5h-12.2c-0.5,0-0.9-0.2-1.3-0.5c-0.4-0.4-0.5-0.8-0.5-1.3v-20.8
		l-4.9,9.7c-0.3,0.5-0.7,1-1.2,1.2c-0.5,0.3-1.1,0.4-1.6,0.4h-4.6c-0.8,0-1.4-0.2-1.9-0.6c-0.5-0.4-0.8-0.8-0.9-1.1l-4.9-9.7v20.8
		c0,0.5-0.2,0.9-0.5,1.3c-0.4,0.4-0.8,0.5-1.3,0.5H83.7c-0.5,0-0.9-0.2-1.3-0.5c-0.4-0.4-0.5-0.8-0.5-1.3v-43.4
		c0-0.5,0.2-0.9,0.5-1.3c0.4-0.4,0.8-0.5,1.3-0.5H96c1.3,0,2.2,0.6,2.9,1.8l8.8,16.1l8.8-16.1c0.7-1.2,1.6-1.8,2.9-1.8h12.3
		c0.5,0,0.9,0.2,1.3,0.5c0.4,0.4,0.5,0.8,0.5,1.3V198.7z M189.4,180.6c0,6.9-2.2,11.9-6.6,15.1c-4.4,3.2-10.4,4.8-17.9,4.8
		c-7.5,0-13.5-1.6-17.9-4.8c-4.4-3.2-6.6-8.3-6.6-15.1v-25.4c0-0.5,0.2-0.9,0.5-1.3c0.4-0.4,0.8-0.5,1.3-0.5h14.1
		c0.5,0,0.9,0.2,1.3,0.5c0.4,0.4,0.5,0.8,0.5,1.3v26.3c0,1.8,0.6,3.2,1.8,4.2c1.2,1,2.9,1.5,5,1.5c2.1,0,3.8-0.5,5-1.5
		c1.2-1,1.8-2.4,1.8-4.2v-26.3c0-0.5,0.2-0.9,0.5-1.3c0.4-0.4,0.8-0.5,1.3-0.5h14.1c0.5,0,0.9,0.2,1.3,0.5c0.4,0.4,0.5,0.8,0.5,1.3
		V180.6z M192.8,141.8l-1.7-4.7h-16.4l-1.7,4.7c-0.6,1.5-1.6,2.3-3,2.3h-12.7c-0.4,0-0.8-0.1-1-0.4c-0.3-0.3-0.4-0.6-0.4-0.8
		s0-0.5,0.1-0.6l14.7-43c0.4-1.5,1.4-2.2,3-2.2h18.7c1.6,0,2.6,0.7,3,2.2l14.7,43c0,0.1,0.1,0.3,0.1,0.6s-0.1,0.5-0.4,0.8
		c-0.3,0.3-0.6,0.4-1,0.4h-12.7C194.4,144.1,193.4,143.3,192.8,141.8z M236.6,196.4c-4.5,2.8-10.5,4.2-18,4.2
		c-7.5,0-13.3-1.4-17.4-4.1c-4.1-2.7-6.2-6.1-6.2-10.1c0-1,0.5-1.5,1.5-1.5h13.8c0.9,0,1.7,0.3,2.3,0.8c1.3,1.1,3.4,1.7,6.5,1.7
		c4.3,0,6.4-0.6,6.4-1.9c0-0.8-0.7-1.4-2-1.9c-1.3-0.5-4-0.9-8-1.3c-12.7-1.5-19-6.2-19-14.1c0-4.5,2-8.1,6.1-10.8
		c4.1-2.7,9.5-4.1,16.4-4.1c6.8,0,12.4,1.5,16.6,4.4c4.2,3,6.3,6.1,6.3,9.4c0,0.4-0.1,0.8-0.4,1.1c-0.3,0.3-0.7,0.4-1.2,0.4h-14.5
		c-0.8,0-1.5-0.3-2.1-0.8c-1.1-0.9-2.7-1.4-4.8-1.4c-3,0-4.5,0.6-4.5,1.8c0,0.6,0.6,1.2,1.7,1.5c1.2,0.4,3.5,0.7,7,1.1
		c7.4,0.8,12.6,2.3,15.7,4.6c3.1,2.2,4.7,5.6,4.7,10C243.4,190,241.2,193.6,236.6,196.4z M245.1,132.4c-0.5,0.3-1.1,0.4-1.6,0.4
		h-4.6c-0.8,0-1.4-0.2-1.9-0.6c-0.5-0.4-0.8-0.8-0.9-1.1l-4.9-9.7v20.8c0,0.5-0.2,0.9-0.5,1.3c-0.4,0.4-0.8,0.5-1.3,0.5h-12.2
		c-0.5,0-0.9-0.2-1.3-0.5c-0.4-0.4-0.5-0.8-0.5-1.3V98.8c0-0.5,0.2-0.9,0.5-1.3c0.4-0.4,0.8-0.5,1.3-0.5h12.3c1.3,0,2.2,0.6,2.9,1.8
		l8.8,16.1l8.8-16.1c0.7-1.2,1.6-1.8,2.9-1.8h12.3c0.5,0,0.9,0.2,1.3,0.5c0.4,0.4,0.5,0.8,0.5,1.3v43.4c0,0.5-0.2,0.9-0.5,1.3
		c-0.4,0.4-0.8,0.5-1.3,0.5H253c-0.5,0-0.9-0.2-1.3-0.5c-0.4-0.4-0.5-0.8-0.5-1.3v-20.8l-4.9,9.7
		C246.1,131.6,245.7,132.1,245.1,132.4z M295.6,165.4c0,0.5-0.2,0.9-0.5,1.3c-0.4,0.4-0.8,0.5-1.3,0.5h-12.2v19.5h12.2
		c0.5,0,0.9,0.2,1.3,0.5c0.4,0.4,0.5,0.8,0.5,1.3v10.2c0,0.5-0.2,0.9-0.5,1.3c-0.4,0.4-0.8,0.5-1.3,0.5h-42.6
		c-0.5,0-0.9-0.2-1.3-0.5c-0.4-0.4-0.5-0.8-0.5-1.3v-10.2c0-0.5,0.2-0.9,0.5-1.3c0.4-0.4,0.8-0.5,1.3-0.5h12.3v-19.5h-12.3
		c-0.5,0-0.9-0.2-1.3-0.5c-0.4-0.4-0.5-0.8-0.5-1.3v-10.2c0-0.5,0.2-0.9,0.5-1.3c0.4-0.4,0.8-0.5,1.3-0.5h42.6
		c0.5,0,0.9,0.2,1.3,0.5c0.4,0.4,0.5,0.8,0.5,1.3V165.4z M321.3,186.1c1.2,0.9,2.8,1.4,4.8,1.4s3.4-0.3,4.3-0.9
		c0.9-0.6,1.6-1.5,2.3-2.6c0.6-1.1,1.4-1.7,2.4-1.7h14.5c0.4,0,0.8,0.1,1,0.4c0.3,0.3,0.4,0.6,0.4,1c0,4.1-2,7.9-5.9,11.2
		c-2,1.7-4.6,3-7.9,4.1c-3.3,1-7.1,1.6-11.6,1.6c-4.4,0-8.5-0.7-12.1-2c-3.7-1.3-6.6-3.5-8.9-6.6c-2.3-3-3.4-6.8-3.4-11.2v-7.7
		c0-4.4,1.1-8.2,3.4-11.2c4.3-5.7,11.5-8.5,21.6-8.5c4.1,0,7.8,0.5,11,1.6c3.3,1,5.9,2.4,7.9,4.1c3.9,3.4,5.9,7.1,5.9,11.2
		c0,0.4-0.1,0.7-0.4,1c-0.3,0.3-0.6,0.4-1,0.4h-14.5c-1,0-1.8-0.6-2.4-1.7c-0.6-1.1-1.4-2-2.3-2.6c-0.9-0.6-2.3-0.9-4.3-0.9
		s-3.6,0.5-4.8,1.4c-1.2,0.9-1.8,2.3-1.8,4V182C319.4,183.8,320,185.1,321.3,186.1z"/>
</g>
</svg>
