<?xml version="1.0" encoding="utf-8"?>
<!-- Generator: Adobe Illustrator 19.0.0, SVG Export Plug-In . SVG Version: 6.00 Build 0)  -->
<svg version="1.1" id="Layer_1" xmlns="http://www.w3.org/2000/svg" xmlns:xlink="http://www.w3.org/1999/xlink" x="0px" y="0px"
	 viewBox="0 0 640.1 308.8" style="enable-background:new 0 0 640.1 308.8;" xml:space="preserve">
<style type="text/css">
	.st0{fill:#231F20;}
</style>
<g id="XMLID_372_">
	<path id="XMLID_380_" class="st0" d="M562.4-185.7c-2.1-1.7-5-2.5-8.7-2.5c-3.7,0-6.6,0.8-8.7,2.4c-2.1,1.6-3.2,3.9-3.2,7v17.7
		c0,3,1.1,5.3,3.2,7c2.1,1.6,5,2.4,8.7,2.4c3.7,0,6.6-0.8,8.7-2.5c2.1-1.7,3.2-4,3.2-7v-17.5C565.6-181.7,564.6-184,562.4-185.7z"/>
	<path id="XMLID_373_" class="st0" d="M-56.2-265.7v198h730v-198H-56.2z M110.2-132.2c0,0.9-0.3,1.6-0.9,2.2
		c-0.6,0.6-1.4,0.9-2.2,0.9H85.9c-0.9,0-1.6-0.3-2.2-0.9c-0.6-0.6-0.9-1.4-0.9-2.2v-36.2l-8.5,16.8c-0.5,0.9-1.2,1.7-2.1,2.2
		c-0.9,0.5-1.9,0.8-2.8,0.8h-7.9c-1.3,0-2.4-0.4-3.3-1.1c-0.9-0.7-1.4-1.3-1.6-1.9l-8.5-16.8v36.2c0,0.9-0.3,1.6-0.9,2.2
		c-0.6,0.6-1.4,0.9-2.2,0.9H23.6c-0.9,0-1.6-0.3-2.2-0.9c-0.6-0.6-0.9-1.4-0.9-2.2v-75.5c0-0.9,0.3-1.6,0.9-2.2
		c0.6-0.6,1.4-0.9,2.2-0.9H45c2.2,0,3.9,1.1,5,3.2l15.3,28.1l15.3-28.1c1.2-2.1,2.8-3.2,5-3.2H107c0.9,0,1.6,0.3,2.2,0.9
		c0.6,0.6,0.9,1.4,0.9,2.2V-132.2z M235.4-163.6c0,11.9-3.8,20.7-11.5,26.3c-7.7,5.6-18.1,8.4-31.1,8.4c-13.1,0-23.5-2.8-31.1-8.4
		c-7.7-5.6-11.5-14.4-11.5-26.3v-44.1c0-0.8,0.3-1.6,0.9-2.2c0.6-0.6,1.4-0.9,2.2-0.9h24.4c0.9,0,1.6,0.3,2.2,0.9
		c0.6,0.6,0.9,1.3,0.9,2.2v45.7c0,3.1,1.1,5.5,3.2,7.2c2.1,1.7,5,2.5,8.7,2.5c3.7,0,6.6-0.8,8.7-2.5c2.1-1.7,3.2-4.1,3.2-7.2v-45.7
		c0-0.8,0.3-1.6,0.9-2.2c0.6-0.6,1.4-0.9,2.2-0.9h24.4c0.9,0,1.6,0.3,2.2,0.9c0.6,0.6,0.9,1.3,0.9,2.2V-163.6z M343.1-136.1
		c-7.9,4.8-18.3,7.2-31.3,7.2c-13,0-23.1-2.4-30.3-7.1c-7.2-4.7-10.8-10.6-10.8-17.5c0-1.7,0.9-2.5,2.7-2.5h24c1.6,0,3,0.5,4,1.4
		c2.2,2,6,3,11.3,3c7.4,0,11.1-1.1,11.1-3.3c0-1.4-1.2-2.4-3.5-3.2c-2.3-0.8-7-1.6-13.9-2.3c-22.1-2.6-33.1-10.7-33.1-24.5
		c0-7.8,3.5-14,10.6-18.8c7.1-4.8,16.6-7.2,28.5-7.2c11.9,0,21.5,2.6,28.8,7.7c7.3,5.1,11,10.6,11,16.3c0,0.8-0.3,1.4-0.8,1.9
		c-0.5,0.5-1.2,0.7-2,0.7h-25.1c-1.4,0-2.6-0.4-3.6-1.3c-1.9-1.6-4.7-2.4-8.4-2.4c-5.2,0-7.8,1.1-7.8,3.2c0,1.1,1,2,3,2.7
		c2,0.6,6.1,1.3,12.2,2c12.8,1.4,21.9,4.1,27.3,8c5.4,3.9,8.1,9.7,8.1,17.4C354.9-147.2,351-141,343.1-136.1z M473.7-190
		c0,0.9-0.3,1.6-0.9,2.2c-0.6,0.6-1.4,0.9-2.2,0.9h-21.2v33.9h21.2c0.9,0,1.6,0.3,2.2,0.9c0.6,0.6,0.9,1.4,0.9,2.2v17.6
		c0,0.9-0.3,1.6-0.9,2.2c-0.6,0.6-1.4,0.9-2.2,0.9h-74.1c-0.9,0-1.6-0.3-2.2-0.9c-0.6-0.6-0.9-1.4-0.9-2.2v-17.6
		c0-0.9,0.3-1.6,0.9-2.2c0.6-0.6,1.4-0.9,2.2-0.9h21.4v-33.9h-21.4c-0.9,0-1.6-0.3-2.2-0.9c-0.6-0.6-0.9-1.4-0.9-2.2v-17.6
		c0-0.9,0.3-1.6,0.9-2.2c0.6-0.6,1.4-0.9,2.2-0.9h74.1c0.9,0,1.6,0.3,2.2,0.9c0.6,0.6,0.9,1.4,0.9,2.2V-190z M597.2-163.1
		c0,11.1-3.8,19.6-11.3,25.3l8.6,11.7c0.5,1.1,0.5,2-0.1,2.6c-0.6,0.7-1.2,1-1.9,1h-22.3c-2.5,0-4.4-1-5.7-2.9l-3-3.9
		c-2.5,0.2-5.1,0.4-7.7,0.4c-8.6,0-16-1.1-22.3-3.3c-6.3-2.2-11.4-5.9-15.3-11.2c-3.9-5.2-5.8-11.9-5.8-19.8v-13.4
		c0-8,1.9-14.6,5.8-19.8c3.9-5.2,9-9,15.3-11.2c6.3-2.2,13.8-3.3,22.3-3.3c8.6,0,16,1.1,22.3,3.3c6.3,2.2,11.4,5.9,15.3,11.1
		c3.9,5.2,5.8,11.7,5.8,19.5V-163.1z"/>
</g>
<rect id="XMLID_27_" x="-642.4" y="-319.8" style="fill:none;" width="782.6" height="181.7"/>
<text id="XMLID_28_" transform="matrix(1 0 0 1 -370.6141 -269.3545)"><tspan x="0" y="0" style="font-family:'RubikMonoOne-Regular'; font-size:72px;">YAMA</tspan><tspan x="-27.7" y="60.4" style="font-family:'RubikMonoOne-Regular'; font-size:72px;">MUSIC</tspan></text>
<g id="XMLID_90_">
	<polygon id="XMLID_91_" class="st0" points="250.1,109.1 267.5,109.1 258.8,83.6 	"/>
	<path id="XMLID_94_" class="st0" d="M0,9.2v290.3c0,5.1,4.1,9.2,9.2,9.2h621.7c5.1,0,9.2-4.1,9.2-9.2V9.2c0-5.1-4.1-9.2-9.2-9.2
		H9.2C4.1,0,0,4.1,0,9.2z M423,142.4L449.7,64c0.7-2.7,2.6-4,5.5-4h34.1c2.9,0,4.8,1.3,5.5,4l26.7,78.4c0.1,0.2,0.1,0.6,0.1,1.1
		c0,0.5-0.3,1-0.8,1.5c-0.5,0.5-1.2,0.8-1.9,0.8h-23.2c-2.6,0-4.5-1.4-5.5-4.2l-3.1-8.6h-29.9l-3.1,8.6c-1.1,2.8-2.9,4.2-5.5,4.2
		h-23.2c-0.7,0-1.4-0.3-1.9-0.8c-0.5-0.5-0.8-1-0.8-1.5C422.8,143,422.9,142.6,423,142.4z M122,60.7c0.5-0.5,1.2-0.8,1.9-0.8h25.9
		c2.3,0,4,0.9,5,2.8l13.9,24.3L183,63c1.2-2,2.9-3.1,5.2-3.1h25.6c0.7,0,1.4,0.3,1.9,0.8c0.5,0.5,0.8,1.1,0.8,1.7
		c0,0.6-0.1,1.1-0.4,1.6l-30.9,51.2v27.4c0,0.9-0.3,1.7-1,2.3c-0.7,0.7-1.4,1-2.3,1h-26.1c-0.9,0-1.7-0.3-2.3-1
		c-0.7-0.7-1-1.4-1-2.3v-27.4L121.6,64c-0.2-0.5-0.4-1-0.4-1.6C121.3,61.8,121.5,61.3,122,60.7z M168.7,245.4c0,0.9-0.3,1.7-1,2.3
		c-0.7,0.7-1.4,1-2.3,1h-22.2c-0.9,0-1.7-0.3-2.3-1c-0.7-0.7-1-1.4-1-2.3v-38l-9,17.7c-0.5,1-1.2,1.7-2.2,2.3c-1,0.5-2,0.8-2.9,0.8
		h-8.3c-1.4,0-2.5-0.4-3.4-1.1c-0.9-0.7-1.5-1.4-1.7-2l-9-17.7v38c0,0.9-0.3,1.7-1,2.3c-0.7,0.7-1.4,1-2.3,1H77.8
		c-0.9,0-1.7-0.3-2.3-1c-0.7-0.7-1-1.4-1-2.3v-79.3c0-0.9,0.3-1.7,1-2.3c0.7-0.7,1.4-1,2.3-1h22.5c2.3,0,4,1.1,5.3,3.3l16.1,29.4
		l16.1-29.4c1.2-2.2,3-3.3,5.3-3.3h22.5c0.9,0,1.7,0.3,2.3,1c0.7,0.7,1,1.4,1,2.3V245.4z M270.7,212.4c0,12.5-4,21.7-12.1,27.6
		c-8.1,5.9-19,8.8-32.7,8.8s-24.6-2.9-32.7-8.8c-8.1-5.9-12.1-15.1-12.1-27.6v-46.3c0-0.9,0.3-1.7,1-2.3c0.7-0.6,1.4-1,2.3-1h25.6
		c0.9,0,1.7,0.3,2.3,1c0.7,0.6,1,1.4,1,2.3v48c0,3.3,1.1,5.8,3.4,7.6c2.2,1.8,5.3,2.7,9.1,2.7c3.8,0,6.9-0.9,9.1-2.7
		c2.2-1.8,3.4-4.3,3.4-7.6v-48c0-0.9,0.3-1.6,1-2.3c0.7-0.6,1.4-1,2.3-1h25.6c0.9,0,1.7,0.3,2.3,1c0.7,0.6,1,1.4,1,2.3V212.4z
		 M276.8,141.6l-3.1-8.6h-29.9l-3.1,8.6c-1.1,2.8-2.9,4.2-5.5,4.2H212c-0.7,0-1.4-0.3-1.9-0.8c-0.5-0.5-0.8-1-0.8-1.5
		c0-0.5,0-0.9,0.1-1.1L236.2,64c0.7-2.7,2.6-4,5.5-4h34.1c2.9,0,4.8,1.3,5.5,4l26.7,78.4c0.1,0.2,0.1,0.6,0.1,1.1
		c0,0.5-0.3,1-0.8,1.5c-0.5,0.5-1.2,0.8-1.9,0.8h-23.2C279.7,145.8,277.9,144.4,276.8,141.6z M356.8,241.3
		c-8.3,5.1-19.2,7.6-32.9,7.6c-13.7,0-24.3-2.5-31.8-7.5c-7.6-5-11.3-11.1-11.3-18.4c0-1.8,0.9-2.7,2.8-2.7h25.2
		c1.7,0,3.1,0.5,4.2,1.5c2.3,2.1,6.3,3.1,11.9,3.1c7.8,0,11.7-1.1,11.7-3.4c0-1.4-1.2-2.5-3.7-3.4c-2.5-0.8-7.3-1.6-14.6-2.4
		c-23.1-2.7-34.7-11.3-34.7-25.7c0-8.1,3.7-14.7,11.2-19.7c7.4-5,17.4-7.5,29.9-7.5c12.5,0,22.6,2.7,30.2,8.1
		c7.7,5.4,11.5,11.1,11.5,17.1c0,0.8-0.3,1.5-0.8,1.9c-0.5,0.5-1.2,0.7-2.1,0.7h-26.4c-1.5,0-2.7-0.5-3.8-1.4
		c-2-1.7-4.9-2.6-8.8-2.6c-5.5,0-8.2,1.1-8.2,3.3c0,1.2,1.1,2.1,3.2,2.8c2.1,0.7,6.4,1.4,12.8,2.1c13.4,1.5,23,4.3,28.6,8.4
		c5.7,4.1,8.5,10.2,8.5,18.3C369.2,229.6,365.1,236.2,356.8,241.3z M372.3,124.4c-1,0.5-2,0.8-2.9,0.8H361c-1.4,0-2.5-0.4-3.4-1.1
		c-0.9-0.7-1.5-1.4-1.7-2l-9-17.7v38c0,0.9-0.3,1.7-1,2.3c-0.7,0.7-1.4,1-2.3,1h-22.2c-0.9,0-1.7-0.3-2.3-1c-0.7-0.7-1-1.4-1-2.3
		V63.2c0-0.9,0.3-1.7,1-2.3c0.7-0.7,1.4-1,2.3-1h22.5c2.3,0,4,1.1,5.3,3.3l16.1,29.4l16.1-29.4c1.2-2.2,3-3.3,5.3-3.3H409
		c0.9,0,1.7,0.3,2.3,1c0.7,0.7,1,1.4,1,2.3v79.3c0,0.9-0.3,1.7-1,2.3c-0.7,0.7-1.4,1-2.3,1h-22.2c-0.9,0-1.7-0.3-2.3-1
		c-0.7-0.7-1-1.4-1-2.3v-38l-9,17.7C374,123.1,373.3,123.9,372.3,124.4z M464.4,184.7c0,0.9-0.3,1.7-1,2.3c-0.7,0.7-1.4,1-2.3,1
		h-22.2v35.6h22.2c0.9,0,1.7,0.3,2.3,1c0.7,0.7,1,1.4,1,2.3v18.5c0,0.9-0.3,1.7-1,2.3c-0.7,0.7-1.4,1-2.3,1h-77.8
		c-0.9,0-1.7-0.3-2.3-1c-0.7-0.7-1-1.4-1-2.3v-18.5c0-0.9,0.3-1.7,1-2.3c0.7-0.7,1.4-1,2.3-1h22.5V188h-22.5c-0.9,0-1.7-0.3-2.3-1
		c-0.7-0.7-1-1.4-1-2.3v-18.5c0-0.9,0.3-1.7,1-2.3c0.7-0.7,1.4-1,2.3-1h77.8c0.9,0,1.7,0.3,2.3,1c0.7,0.7,1,1.4,1,2.3V184.7z
		 M511.2,222.4c2.2,1.7,5.2,2.6,8.8,2.6c3.6,0,6.3-0.5,7.9-1.6c1.6-1.1,3-2.7,4.1-4.8c1.1-2.1,2.6-3.1,4.4-3.1h26.5
		c0.7,0,1.4,0.3,1.9,0.8c0.5,0.5,0.8,1.1,0.8,1.9c0,7.5-3.6,14.3-10.8,20.5c-3.6,3.1-8.4,5.5-14.4,7.4c-6,1.9-13,2.8-21.1,2.8
		s-15.5-1.2-22.1-3.6c-6.7-2.4-12.1-6.4-16.3-12c-4.2-5.5-6.3-12.3-6.3-20.4v-14.1c0-8.1,2.1-14.9,6.3-20.5
		c7.9-10.4,21-15.6,39.4-15.6c7.4,0,14.2,0.9,20.1,2.8c6,1.9,10.8,4.4,14.4,7.4c7.2,6.2,10.8,13,10.8,20.5c0,0.7-0.3,1.3-0.8,1.9
		c-0.5,0.5-1.2,0.8-1.9,0.8h-26.5c-1.8,0-3.3-1-4.4-3.1c-1.1-2.1-2.5-3.7-4.1-4.8c-1.6-1.1-4.3-1.6-7.9-1.6c-3.6,0-6.6,0.9-8.8,2.6
		c-2.3,1.7-3.4,4.1-3.4,7.3v18.6C507.9,218.3,509,220.7,511.2,222.4z"/>
	<polygon id="XMLID_103_" class="st0" points="472.3,83.6 463.6,109.1 481,109.1 	"/>
</g>
</svg>
