<?xml version="1.0" encoding="utf-8"?>
<!-- Generator: Adobe Illustrator 19.0.0, SVG Export Plug-In . SVG Version: 6.00 Build 0)  -->
<svg version="1.1" id="Layer_1" xmlns="http://www.w3.org/2000/svg" xmlns:xlink="http://www.w3.org/1999/xlink" x="0px" y="0px"
	 viewBox="0 0 428 292.6" style="enable-background:new 0 0 428 292.6;" xml:space="preserve">
<style type="text/css">
	.st0{fill:none;stroke:#6D6E71;stroke-width:2;stroke-linecap:round;stroke-linejoin:round;stroke-miterlimit:10;}
	.st1{fill:#231F20;}
	.st2{fill:#E6E7E8;}
</style>
<g id="XMLID_269_">
	<polygon id="XMLID_272_" class="st0" points="48.4,291.6 216.2,1 384,291.6 	"/>
	<polygon id="XMLID_271_" class="st0" points="1,291.6 124.2,78.3 247.3,291.6 	"/>
	<polygon id="XMLID_270_" class="st0" points="142.1,291.6 284.6,44.9 427,291.6 	"/>
</g>
<g id="XMLID_372_">
	<path id="XMLID_380_" class="st1" d="M456.4-193.8c-2.1-1.7-5-2.5-8.7-2.5c-3.7,0-6.6,0.8-8.7,2.4c-2.1,1.6-3.2,3.9-3.2,7v17.7
		c0,3,1.1,5.3,3.2,7c2.1,1.6,5,2.4,8.7,2.4c3.7,0,6.6-0.8,8.7-2.5c2.1-1.7,3.2-4,3.2-7v-17.5C459.6-189.8,458.5-192.1,456.4-193.8z"
		/>
	<path id="XMLID_373_" class="st1" d="M-162.3-273.8v198h730v-198H-162.3z M4.1-140.3c0,0.9-0.3,1.6-0.9,2.2
		c-0.6,0.6-1.4,0.9-2.2,0.9h-21.2c-0.9,0-1.6-0.3-2.2-0.9c-0.6-0.6-0.9-1.4-0.9-2.2v-36.2l-8.5,16.8c-0.5,0.9-1.2,1.7-2.1,2.2
		c-0.9,0.5-1.9,0.8-2.8,0.8h-7.9c-1.3,0-2.4-0.4-3.3-1.1c-0.9-0.7-1.4-1.3-1.6-1.9l-8.5-16.8v36.2c0,0.9-0.3,1.6-0.9,2.2
		c-0.6,0.6-1.4,0.9-2.2,0.9h-21.2c-0.9,0-1.6-0.3-2.2-0.9c-0.6-0.6-0.9-1.4-0.9-2.2v-75.5c0-0.9,0.3-1.6,0.9-2.2
		c0.6-0.6,1.4-0.9,2.2-0.9h21.4c2.2,0,3.9,1.1,5,3.2l15.3,28.1l15.3-28.1c1.2-2.1,2.8-3.2,5-3.2H0.9c0.9,0,1.6,0.3,2.2,0.9
		c0.6,0.6,0.9,1.4,0.9,2.2V-140.3z M129.3-171.8c0,11.9-3.8,20.7-11.5,26.3c-7.7,5.6-18.1,8.4-31.1,8.4c-13.1,0-23.5-2.8-31.1-8.4
		c-7.7-5.6-11.5-14.4-11.5-26.3v-44.1c0-0.8,0.3-1.6,0.9-2.2c0.6-0.6,1.4-0.9,2.2-0.9h24.4c0.9,0,1.6,0.3,2.2,0.9
		c0.6,0.6,0.9,1.3,0.9,2.2v45.7c0,3.1,1.1,5.5,3.2,7.2c2.1,1.7,5,2.5,8.7,2.5c3.7,0,6.6-0.8,8.7-2.5c2.1-1.7,3.2-4.1,3.2-7.2v-45.7
		c0-0.8,0.3-1.6,0.9-2.2c0.6-0.6,1.4-0.9,2.2-0.9h24.4c0.9,0,1.6,0.3,2.2,0.9c0.6,0.6,0.9,1.3,0.9,2.2V-171.8z M237-144.2
		c-7.9,4.8-18.3,7.2-31.3,7.2c-13,0-23.1-2.4-30.3-7.1c-7.2-4.7-10.8-10.6-10.8-17.5c0-1.7,0.9-2.5,2.7-2.5h24c1.6,0,3,0.5,4,1.4
		c2.2,2,6,3,11.3,3c7.4,0,11.1-1.1,11.1-3.3c0-1.4-1.2-2.4-3.5-3.2c-2.3-0.8-7-1.6-13.9-2.3c-22.1-2.6-33.1-10.7-33.1-24.5
		c0-7.8,3.5-14,10.6-18.8c7.1-4.8,16.6-7.2,28.5-7.2c11.9,0,21.5,2.6,28.8,7.7c7.3,5.1,11,10.6,11,16.3c0,0.8-0.3,1.4-0.8,1.9
		c-0.5,0.5-1.2,0.7-2,0.7h-25.1c-1.4,0-2.6-0.4-3.6-1.3c-1.9-1.6-4.7-2.4-8.4-2.4c-5.2,0-7.8,1.1-7.8,3.2c0,1.1,1,2,3,2.7
		c2,0.6,6.1,1.3,12.2,2c12.8,1.4,21.9,4.1,27.3,8c5.4,3.9,8.1,9.7,8.1,17.4C248.8-155.3,244.9-149.1,237-144.2z M367.6-198.2
		c0,0.9-0.3,1.6-0.9,2.2c-0.6,0.6-1.4,0.9-2.2,0.9h-21.2v33.9h21.2c0.9,0,1.6,0.3,2.2,0.9c0.6,0.6,0.9,1.4,0.9,2.2v17.6
		c0,0.9-0.3,1.6-0.9,2.2c-0.6,0.6-1.4,0.9-2.2,0.9h-74.1c-0.9,0-1.6-0.3-2.2-0.9c-0.6-0.6-0.9-1.4-0.9-2.2v-17.6
		c0-0.9,0.3-1.6,0.9-2.2c0.6-0.6,1.4-0.9,2.2-0.9h21.4V-195h-21.4c-0.9,0-1.6-0.3-2.2-0.9c-0.6-0.6-0.9-1.4-0.9-2.2v-17.6
		c0-0.9,0.3-1.6,0.9-2.2c0.6-0.6,1.4-0.9,2.2-0.9h74.1c0.9,0,1.6,0.3,2.2,0.9c0.6,0.6,0.9,1.4,0.9,2.2V-198.2z M491.1-171.2
		c0,11.1-3.8,19.6-11.3,25.3l8.6,11.7c0.5,1.1,0.5,2-0.1,2.6c-0.6,0.7-1.2,1-1.9,1h-22.3c-2.5,0-4.4-1-5.7-2.9l-3-3.9
		c-2.5,0.2-5.1,0.4-7.7,0.4c-8.6,0-16-1.1-22.3-3.3c-6.3-2.2-11.4-5.9-15.3-11.2c-3.9-5.2-5.8-11.9-5.8-19.8v-13.4
		c0-8,1.9-14.6,5.8-19.8c3.9-5.2,9-9,15.3-11.2c6.3-2.2,13.8-3.3,22.3-3.3c8.6,0,16,1.1,22.3,3.3c6.3,2.2,11.4,5.9,15.3,11.1
		c3.9,5.2,5.8,11.7,5.8,19.5V-171.2z"/>
</g>
<rect id="XMLID_27_" x="-748.5" y="-327.9" style="fill:none;" width="782.6" height="181.7"/>
<text id="XMLID_28_" transform="matrix(1 0 0 1 -476.6882 -277.4658)"><tspan x="0" y="0" style="font-family:'RubikMonoOne-Regular'; font-size:72px;">YAMA</tspan><tspan x="-27.7" y="60.4" style="font-family:'RubikMonoOne-Regular'; font-size:72px;">MUSIC</tspan></text>
<g id="XMLID_29_">
	<path id="XMLID_452_" class="st2" d="M108.4,85.6h20.5c0.6,0,1.1,0.2,1.5,0.6c0.4,0.4,0.6,0.9,0.6,1.3c0,0.5-0.1,0.9-0.3,1.3
		l-24.7,40.9v21.9c0,0.7-0.3,1.3-0.8,1.9c-0.5,0.5-1.1,0.8-1.9,0.8H82.5c-0.7,0-1.3-0.3-1.9-0.8c-0.5-0.5-0.8-1.1-0.8-1.9v-21.9
		L55.2,88.9c-0.2-0.4-0.3-0.8-0.3-1.3c0-0.5,0.2-0.9,0.6-1.3c0.4-0.4,0.9-0.6,1.5-0.6h20.7c1.8,0,3.2,0.8,4,2.3l11.1,19.4l11.4-19.2
		C105.3,86.4,106.7,85.6,108.4,85.6z"/>
	<path id="XMLID_449_" class="st2" d="M146.1,154.3h-18.6c-0.6,0-1.1-0.2-1.5-0.6c-0.4-0.4-0.6-0.8-0.6-1.2c0-0.4,0-0.7,0.1-0.9
		l21.4-62.7c0.6-2.2,2.1-3.2,4.4-3.2h27.3c2.4,0,3.8,1.1,4.4,3.2l21.4,62.7c0.1,0.2,0.1,0.5,0.1,0.9c0,0.4-0.2,0.8-0.6,1.2
		c-0.4,0.4-0.9,0.6-1.5,0.6h-18.6c-2.1,0-3.6-1.1-4.4-3.3l-2.5-6.9h-24l-2.5,6.9C149.7,153.2,148.2,154.3,146.1,154.3z M171.9,125
		l-7-20.4l-7,20.4H171.9z"/>
	<path id="XMLID_447_" class="st2" d="M267.2,85.6h18c0.7,0,1.3,0.3,1.9,0.8c0.5,0.5,0.8,1.1,0.8,1.9v63.4c0,0.7-0.3,1.3-0.8,1.9
		c-0.5,0.5-1.1,0.8-1.9,0.8h-17.8c-0.7,0-1.3-0.3-1.9-0.8c-0.5-0.5-0.8-1.1-0.8-1.9v-30.4l-7.2,14.1c-0.4,0.8-1,1.4-1.8,1.8
		c-0.8,0.4-1.6,0.6-2.4,0.6h-6.7c-1.1,0-2-0.3-2.7-0.9c-0.7-0.6-1.2-1.1-1.4-1.6l-7.2-14.1v30.4c0,0.7-0.3,1.3-0.8,1.9
		c-0.5,0.5-1.1,0.8-1.9,0.8H215c-0.7,0-1.3-0.3-1.9-0.8c-0.5-0.5-0.8-1.1-0.8-1.9V88.3c0-0.7,0.3-1.3,0.8-1.9
		c0.5-0.5,1.1-0.8,1.9-0.8h18c1.8,0,3.2,0.9,4.2,2.7l12.9,23.6l12.9-23.6C263.9,86.5,265.3,85.6,267.2,85.6z"/>
	<path id="XMLID_444_" class="st2" d="M316.9,154.3h-18.6c-0.6,0-1.1-0.2-1.5-0.6c-0.4-0.4-0.6-0.8-0.6-1.2c0-0.4,0-0.7,0.1-0.9
		l21.4-62.7c0.6-2.2,2.1-3.2,4.4-3.2h27.3c2.4,0,3.8,1.1,4.4,3.2l21.4,62.7c0.1,0.2,0.1,0.5,0.1,0.9c0,0.4-0.2,0.8-0.6,1.2
		c-0.4,0.4-0.9,0.6-1.5,0.6h-18.6c-2.1,0-3.6-1.1-4.4-3.3l-2.5-6.9h-24l-2.5,6.9C320.5,153.2,319,154.3,316.9,154.3z M342.7,125
		l-7-20.4l-7,20.4H342.7z"/>
	<path id="XMLID_421_" class="st2" d="M72.3,168h18c0.7,0,1.3,0.3,1.9,0.8c0.5,0.5,0.8,1.1,0.8,1.9V234c0,0.7-0.3,1.3-0.8,1.9
		c-0.5,0.5-1.1,0.8-1.9,0.8H72.5c-0.7,0-1.3-0.3-1.9-0.8c-0.5-0.5-0.8-1.1-0.8-1.9v-30.4l-7.2,14.1c-0.4,0.8-1,1.4-1.8,1.8
		c-0.8,0.4-1.6,0.6-2.4,0.6h-6.7c-1.1,0-2-0.3-2.7-0.9c-0.7-0.6-1.2-1.1-1.4-1.6l-7.2-14.1V234c0,0.7-0.3,1.3-0.8,1.9
		c-0.5,0.5-1.1,0.8-1.9,0.8H20.2c-0.7,0-1.3-0.3-1.9-0.8c-0.5-0.5-0.8-1.1-0.8-1.9v-63.4c0-0.7,0.3-1.3,0.8-1.9
		c0.5-0.5,1.1-0.8,1.9-0.8h18c1.8,0,3.2,0.9,4.2,2.6l12.9,23.6l12.9-23.6C69.1,168.9,70.5,168,72.3,168z"/>
	<path id="XMLID_280_" class="st2" d="M164.8,229.7c-6.4,4.7-15.2,7.1-26.2,7.1c-11,0-19.7-2.4-26.2-7.1c-6.4-4.7-9.7-12.1-9.7-22.1
		v-37c0-0.7,0.3-1.3,0.8-1.8c0.5-0.5,1.1-0.8,1.9-0.8H126c0.7,0,1.3,0.3,1.9,0.8c0.5,0.5,0.8,1.1,0.8,1.8V209c0,2.6,0.9,4.7,2.7,6.1
		c1.8,1.4,4.2,2.1,7.3,2.1c3.1,0,5.5-0.7,7.3-2.1c1.8-1.4,2.7-3.4,2.7-6.1v-38.4c0-0.7,0.3-1.3,0.8-1.8c0.5-0.5,1.1-0.8,1.9-0.8
		h20.5c0.7,0,1.3,0.3,1.9,0.8c0.5,0.5,0.8,1.1,0.8,1.8v37C174.5,217.6,171.3,225,164.8,229.7z"/>
	<path id="XMLID_278_" class="st2" d="M246.5,200.2c4.5,3.3,6.8,8.1,6.8,14.6s-3.3,11.8-9.9,15.8c-6.6,4-15.4,6.1-26.3,6.1
		c-10.9,0-19.4-2-25.5-6c-6.1-4-9.1-8.9-9.1-14.7c0-1.4,0.8-2.1,2.3-2.1h20.1c1.4,0,2.5,0.4,3.3,1.2c1.8,1.7,5,2.5,9.5,2.5
		c6.2,0,9.3-0.9,9.3-2.7c0-1.1-1-2-2.9-2.7c-2-0.7-5.9-1.3-11.7-1.9c-18.5-2.1-27.8-9-27.8-20.6c0-6.5,3-11.8,8.9-15.8
		c6-4,13.9-6,23.9-6c10,0,18,2.2,24.2,6.5c6.2,4.3,9.2,8.9,9.2,13.7c0,0.6-0.2,1.2-0.6,1.6c-0.4,0.4-1,0.6-1.7,0.6h-21.1
		c-1.2,0-2.2-0.4-3-1.1c-1.6-1.4-3.9-2-7.1-2c-4.4,0-6.6,0.9-6.6,2.7c0,0.9,0.8,1.7,2.6,2.2c1.7,0.5,5.1,1.1,10.2,1.7
		C234.3,194.8,241.9,197,246.5,200.2z"/>
	<path id="XMLID_276_" class="st2" d="M326.8,188.1h-17.8v28.5h17.8c0.7,0,1.3,0.3,1.9,0.8c0.5,0.5,0.8,1.1,0.8,1.9V234
		c0,0.7-0.3,1.3-0.8,1.9c-0.5,0.5-1.1,0.8-1.9,0.8h-62.2c-0.7,0-1.3-0.3-1.9-0.8c-0.5-0.5-0.8-1.1-0.8-1.9v-14.8
		c0-0.7,0.3-1.3,0.8-1.9c0.5-0.5,1.1-0.8,1.9-0.8h18v-28.5h-18c-0.7,0-1.3-0.3-1.9-0.8c-0.5-0.5-0.8-1.1-0.8-1.9v-14.8
		c0-0.7,0.3-1.3,0.8-1.9c0.5-0.5,1.1-0.8,1.9-0.8h62.2c0.7,0,1.3,0.3,1.9,0.8c0.5,0.5,0.8,1.1,0.8,1.9v14.8c0,0.7-0.3,1.3-0.8,1.9
		C328.2,187.8,327.6,188.1,326.8,188.1z"/>
	<path id="XMLID_274_" class="st2" d="M364.2,194.9v14.9c0,2.5,0.9,4.5,2.7,5.8c1.8,1.4,4.2,2,7.1,2s5-0.4,6.3-1.3
		c1.3-0.9,2.4-2.1,3.3-3.8c0.9-1.7,2-2.5,3.5-2.5h21.2c0.6,0,1.1,0.2,1.5,0.6c0.4,0.4,0.6,0.9,0.6,1.5c0,6-2.9,11.5-8.6,16.4
		c-2.9,2.4-6.7,4.4-11.5,5.9c-4.8,1.5-10.4,2.3-16.9,2.3c-6.5,0-12.4-1-17.7-2.9c-5.3-1.9-9.7-5.1-13-9.6c-3.3-4.4-5-9.9-5-16.3
		v-11.3c0-6.4,1.7-11.9,5-16.4c6.3-8.3,16.8-12.4,31.5-12.4c6,0,11.3,0.8,16.1,2.3c4.8,1.5,8.6,3.5,11.5,5.9
		c5.8,5,8.6,10.4,8.6,16.4c0,0.6-0.2,1.1-0.6,1.5c-0.4,0.4-0.9,0.6-1.5,0.6h-21.2c-1.4,0-2.6-0.8-3.5-2.5c-0.9-1.7-2-2.9-3.3-3.8
		c-1.3-0.9-3.4-1.3-6.3-1.3s-5.3,0.7-7.1,2C365.1,190.4,364.2,192.4,364.2,194.9z"/>
</g>
</svg>
